<svg xmlns="http://www.w3.org/2000/svg" width="1200" height="630" viewBox="0 0 1200 630" role="img" aria-labelledby="title desc">
  <title id="title">UMI Millennium Theme Header</title>
  <desc id="desc">Vintage dark industrial Steam theme preview with cold light text and hazard orange activation.</desc>
  <defs>
    <filter id="grain">
      <feTurbulence type="fractalNoise" baseFrequency="0.8" numOctaves="2" seed="7"/>
      <feColorMatrix values="0 0 0 0 0.06 0 0 0 0 0.035 0 0 0 0 0.02 0 0 0 0.22 0"/>
    </filter>
    <linearGradient id="chrome" x1="0" y1="0" x2="0" y2="1">
      <stop offset="0" stop-color="#20242a"/>
      <stop offset="1" stop-color="#050608"/>
    </linearGradient>
    <linearGradient id="panel" x1="0" y1="0" x2="0" y2="1">
      <stop offset="0" stop-color="#171b20"/>
      <stop offset="1" stop-color="#0b0d10"/>
    </linearGradient>
    <pattern id="hazard" width="24" height="24" patternUnits="userSpaceOnUse" patternTransform="rotate(45)">
      <rect width="12" height="24" fill="#C94A00"/>
      <rect x="12" width="12" height="24" fill="#FF8A4A"/>
    </pattern>
  </defs>
  <rect width="1200" height="630" fill="#050608"/>
  <rect width="1200" height="630" filter="url(#grain)" opacity="0.8"/>
  <rect x="70" y="70" width="1060" height="490" rx="8" fill="url(#chrome)" stroke="#000" stroke-width="3"/>
  <rect x="96" y="100" width="1008" height="54" rx="4" fill="url(#hazard)" opacity="0.9"/>
  <rect x="96" y="180" width="260" height="330" rx="5" fill="#0f1216" stroke="#3b414a" stroke-width="2"/>
  <rect x="390" y="180" width="714" height="330" rx="5" fill="url(#panel)" stroke="#3b414a" stroke-width="2"/>
  <g fill="#b6bdc7">
    <rect x="125" y="220" width="178" height="20" rx="4"/>
    <rect x="125" y="264" width="132" height="16" rx="4" opacity="0.75"/>
    <rect x="125" y="306" width="190" height="16" rx="4" opacity="0.55"/>
  </g>
  <g fill="#eceff3">
    <rect x="430" y="220" width="360" height="28" rx="5"/>
    <rect x="430" y="276" width="610" height="18" rx="4" opacity="0.75"/>
    <rect x="430" y="318" width="540" height="18" rx="4" opacity="0.55"/>
    <rect x="430" y="402" width="230" height="50" rx="5" fill="#ff6700"/>
  </g>
  <text x="96" y="142" fill="#eceff3" font-family="Arial, Helvetica, sans-serif" font-size="34" font-weight="700">UMI</text>
  <text x="430" y="482" fill="#ff8a4a" font-family="Arial, Helvetica, sans-serif" font-size="30" font-weight="700">Vintage Millennium Theme</text>
</svg>
